<svg width="506" height="560" viewBox="0 0 506 560" fill="none" xmlns="http://www.w3.org/2000/svg">
<g clip-path="url(#clip0_402_14)">
<path d="M0.571429 174.571C8.09179 166.898 17.922 161.904 28.5539 160.356C39.1858 158.808 50.0321 160.79 59.4286 166L260.571 280.286L58.8571 394.571C49.4556 399.762 38.6139 401.734 27.9867 400.186C17.3595 398.639 7.53058 393.657 0 386C0.571429 386 0.571429 160.857 0.571429 174.571Z" fill="url(#paint0_linear_402_14)"/>
<path d="M479.429 116.286C482.106 126.279 481.368 136.88 477.33 146.405C473.292 155.931 466.187 163.833 457.143 168.857L260.571 280.286L58.8571 166C49.4556 160.809 38.6139 158.837 27.9867 160.385C17.3595 161.933 7.53058 166.915 0 174.571C0.133496 162.275 3.53865 150.236 9.86555 139.691C16.1925 129.146 25.2129 120.476 36 114.571L221.143 9.42857C232.031 3.24757 244.337 -0.0018158 256.857 -0.0018158C269.377 -0.0018158 281.683 3.24757 292.571 9.42857L479.429 116.286Z" fill="url(#paint1_linear_402_14)"/>
<path d="M58.8571 394.571L457.143 168.857C476 158 480.571 136.286 475.429 116.286C496.571 128.857 505.143 151.714 505.143 175.714V385.429C505.143 410.571 495.429 433.429 473.714 446L290.857 550.571C280.174 556.746 268.053 559.997 255.714 559.997C243.375 559.997 231.254 556.746 220.571 550.571L35.4286 446C24.8733 439.877 16.0703 431.142 9.86584 420.634C3.66134 410.127 0.263885 398.2 0 386C7.53058 393.657 17.3595 398.639 27.9867 400.186C38.6139 401.734 49.4556 399.762 58.8571 394.571Z" fill="url(#paint2_linear_402_14)"/>
</g>
<defs>
<linearGradient id="paint0_linear_402_14" x1="28.2286" y1="404.4" x2="139.943" y2="210.914" gradientUnits="userSpaceOnUse">
<stop stop-color="#00DAD9"/>
<stop offset="1" stop-color="#095FA7"/>
</linearGradient>
<linearGradient id="paint1_linear_402_14" x1="175.429" y1="34.0571" x2="304.229" y2="257.143" gradientUnits="userSpaceOnUse">
<stop stop-color="#0BF7DF"/>
<stop offset="1" stop-color="#0095FF"/>
</linearGradient>
<linearGradient id="paint2_linear_402_14" x1="541.943" y1="202.514" x2="82.2286" y2="524.4" gradientUnits="userSpaceOnUse">
<stop stop-color="#00FCC6"/>
<stop offset="1" stop-color="#0095FF"/>
</linearGradient>
<clipPath id="clip0_402_14">
<rect width="505.143" height="560" fill="white"/>
</clipPath>
</defs>
</svg>
